# xmcd
#
# Track frame offsets: 
#        150
#        13977
#        27712
#        40133
#        52340
#        66075
#        82408
#        95463
#        111905
#        124678
#        137629
#        147526
#        159843
#        171565
#        184178
#        195898
#        213481
#        224115
#        236771
#        247475
#
# Disc length: 3516 seconds
#
# Revision: 1
# Processed by: cddbd v1.5.2PL0 Copyright (c) Steve Scherf et al.
# Submitted via: ExactAudioCopy v0.99pb4
#
DISCID=460dba14
DTITLE=Merle Haggard - @CD Autograph Collection
DYEAR=2006
DGENRE=Country
TTITLE0=Cherokee Maiden
TTITLE1=Farmer's Daughter
TTITLE2=The Roots Of My Raising
TTITLE3=I Take A Lot Of Pride In What I Am
TTITLE4=Holding Things Together
TTITLE5=Ramblin' Fever
TTITLE6=Misery and Gin
TTITLE7=It's Not Love (But It's Not Bad)
TTITLE8=The Emptiest Arms In The Worls
TTITLE9=Swinging Doors
TTITLE10=The Legend Of Bonnie and Clyde
TTITLE11=Everybody's Had The Blues
TTITLE12=From Graceland To The Promised Land
TTITLE13=I'm Always On A Mountain When I Fall
TTITLE14=(My Friends Are Gonna Be) Strangers
TTITLE15=I Think I'll Just Stay Here and Drink
TTITLE16=Someday We'll Look Back
TTITLE17=It's Been A Great Afternoon
TTITLE18=Old Man From The Mountains
TTITLE19=It's All In The Movies
EXTD=
EXTT0=
EXTT1=
EXTT2=
EXTT3=
EXTT4=
EXTT5=
EXTT6=
EXTT7=
EXTT8=
EXTT9=
EXTT10=
EXTT11=
EXTT12=
EXTT13=
EXTT14=
EXTT15=
EXTT16=
EXTT17=
EXTT18=
EXTT19=
PLAYORDER=
